<?xml version="1.0" encoding="utf-8"?>
<!-- Generator: Adobe Illustrator 23.1.0, SVG Export Plug-In . SVG Version: 6.00 Build 0)  -->
<svg version="1.1" xmlns="http://www.w3.org/2000/svg" xmlns:xlink="http://www.w3.org/1999/xlink" x="0px" y="0px"
	 viewBox="0 0 200 200" style="enable-background:new 0 0 200 200;" xml:space="preserve">
<style type="text/css">
	.st0{fill:#99E836;}
	.st1{fill:#0D0D0C;}
</style>
<g id="Capa_1">
	<path class="st0" d="M200,100c0,55.2-44.8,100-100,100C44.8,200,0,155.2,0,100C0,44.8,44.8,0,100,0C155.2,0,200,44.8,200,100z"/>
	<circle class="st1" cx="21.8" cy="128.5" r="6.4"/>
	<circle class="st1" cx="181.3" cy="93.6" r="6.4"/>
</g>
<g id="Capa_2">
	<g>
		<path d="M22.5,90.5c0.9,0,1.6,0.4,2.1,1.1c0.4,0.6,0.6,1.4,0.6,2.3c0,0.8-0.2,1.6-0.7,2.1c-0.4,0.5-1.1,1-2.1,1.4l-6.9,2
			c-0.2,0.1-0.3,0.2-0.4,0.3c-0.1,0.1-0.1,0.2-0.1,0.3c0,0.1,0.1,0.3,0.2,0.4c0.1,0.1,0.3,0.2,0.5,0.2l6.7,0c0.9,0,1.7,0.4,2.1,1.1
			c0.4,0.6,0.6,1.4,0.6,2.3c0,0.8-0.3,1.5-0.8,2c-0.6,0.6-1.5,1.1-2.6,1.4l-9.4,2.7l0-2.9l9.4-2.9c0.2,0,0.4-0.1,0.5-0.2
			c0.1-0.1,0.1-0.2,0.1-0.3c0-0.2-0.1-0.3-0.2-0.4c-0.1-0.1-0.3-0.1-0.5-0.1l-6.7,0c-0.8,0-1.5-0.3-2-1c-0.5-0.6-0.8-1.4-0.8-2.3
			c0-0.8,0.2-1.5,0.6-2c0.4-0.6,1.1-1.1,2-1.3l7-2.3c0.3-0.1,0.5-0.2,0.6-0.3c0.1-0.1,0.1-0.2,0.1-0.3c-0.1-0.2-0.1-0.3-0.2-0.4
			s-0.2-0.1-0.5-0.1l-9.4,0l0-2.8L22.5,90.5z"/>
		<path d="M28.7,76.1L28,79L17.7,80c-0.1,0-0.2,0.1-0.2,0.2c0,0.1,0,0.2,0.1,0.3l8.8,5.5l-0.7,3c-0.5-0.3-1.6-1-3.2-1.9
			s-3.1-1.9-4.6-2.8c-1.6-1-2.5-1.6-2.6-1.8c-0.3-0.3-0.5-0.7-0.5-1.3c-0.1-0.5,0-1,0.1-1.6c0.1-0.5,0.3-1,0.6-1.5
			c0.3-0.4,0.6-0.7,1-0.9c0.2-0.1,1.3-0.2,3.1-0.4c1.1-0.1,2.9-0.2,5.4-0.4C26.4,76.3,27.6,76.2,28.7,76.1z"/>
		<path d="M22.6,58.5l5.2,8l4.2,1.9l-1.1,2.6L26.7,69l-9.4,1.4l1.3-3l5.5-0.9c0.1,0,0.2,0,0.2-0.1s0-0.2,0-0.3l-3.1-4.6L22.6,58.5z"
			/>
		<path d="M33.4,46.9l-3.9,5.6c-0.2,0.3-0.2,0.5-0.1,0.8c0.1,0.3,0.3,0.5,0.5,0.7c0.3,0.2,0.5,0.3,0.8,0.2c0.3,0,0.5-0.2,0.7-0.4
			l2.3-3.3c0.6-0.9,1.4-1.4,2.5-1.4c0.9,0,1.8,0.2,2.7,0.8c0.9,0.6,1.4,1.3,1.7,2.2c0.3,1,0.1,1.9-0.5,2.8l-4.2,6l-2.2-1.6l3.9-5.6
			c0.2-0.2,0.2-0.5,0.1-0.8c-0.1-0.3-0.3-0.5-0.5-0.7c-0.3-0.2-0.5-0.3-0.8-0.3c-0.3,0-0.5,0.1-0.7,0.4l-2.3,3.3
			c-0.6,0.9-1.4,1.4-2.5,1.4c-0.9,0.1-1.8-0.2-2.7-0.8c-0.9-0.6-1.4-1.3-1.7-2.2c-0.3-1-0.1-1.9,0.5-2.8l4.1-6L33.4,46.9z"/>
		<path d="M48.7,32.1l-2.2,1.8l6.4,7.7l-2.1,1.8l-6.4-7.7l-2.2,1.8l-1.7-2.1L47,30L48.7,32.1z"/>
		<path d="M64.2,34.2l-3.6,2.1c-1.3,0.7-2.6,0.8-4,0.1c-1.3-0.6-2.3-1.7-3.2-3.2c-0.9-1.5-1.3-3-1.2-4.4c0.1-1.6,0.8-2.8,2-3.5
			l3.6-2.1c1.3-0.7,2.6-0.7,4.1,0c1.3,0.7,2.4,1.8,3.3,3.3c0.9,1.5,1.2,2.9,1.2,4.3C66.2,32.2,65.5,33.4,64.2,34.2z M62.4,32
			c0.6-0.3,0.8-0.9,0.8-1.8c0-0.8-0.3-1.6-0.8-2.5c-0.5-0.8-1-1.5-1.7-1.9c-0.7-0.4-1.4-0.5-2-0.1L56,27.3c-0.6,0.3-0.9,0.9-0.9,1.8
			c0,0.8,0.3,1.5,0.8,2.4c0.5,0.9,1.1,1.5,1.8,2c0.7,0.5,1.4,0.5,2,0.2L62.4,32z"/>
		<path d="M85.4,26.5l-6.1,1.3l-2.6-12.5l6.1-1.3c1.4-0.3,2.7,0.1,3.9,1.2c1,1,1.7,2.4,2.1,4.1c0.4,1.7,0.3,3.2-0.2,4.5
			C87.9,25.3,86.8,26.2,85.4,26.5z M84.3,23.9c0.7-0.1,1.1-0.6,1.3-1.5c0.2-0.8,0.2-1.6,0-2.6c-0.2-1-0.5-1.7-1-2.3
			c-0.5-0.6-1.2-0.9-1.8-0.7L80,17.4l1.5,7.1L84.3,23.9z"/>
		<path d="M96.1,25.2l-2.8,0.2l-0.9-12.7l2.8-0.2L96.1,25.2z"/>
		<path d="M111,15.6l-6.8-0.4c-0.3,0-0.6,0.1-0.7,0.3c-0.2,0.2-0.3,0.5-0.3,0.8c0,0.3,0,0.6,0.2,0.8s0.4,0.3,0.7,0.4l4,0.3
			c1.1,0.1,1.9,0.5,2.5,1.4c0.5,0.8,0.7,1.7,0.7,2.7c-0.1,1.1-0.4,1.9-1,2.6c-0.7,0.8-1.6,1.1-2.6,1l-7.3-0.5l0.2-2.7l6.8,0.4
			c0.3,0,0.5-0.1,0.7-0.3c0.2-0.2,0.3-0.5,0.3-0.8c0-0.3,0-0.6-0.2-0.8c-0.1-0.2-0.4-0.4-0.7-0.4l-4-0.3c-1.1-0.1-1.9-0.5-2.5-1.4
			c-0.5-0.8-0.7-1.7-0.7-2.7c0.1-1,0.4-1.9,1-2.6c0.7-0.8,1.6-1.1,2.7-1l7.2,0.5L111,15.6z"/>
		<path d="M125.8,29.4l-2.9-0.8l-0.7-10.3c0-0.1,0-0.2-0.2-0.2c-0.1,0-0.2,0-0.3,0.1l-5.7,8.6l-3-0.8c0.3-0.5,1-1.6,2-3.2
			c1-1.6,2-3.1,2.9-4.5c1.1-1.6,1.7-2.4,1.8-2.6c0.3-0.3,0.8-0.4,1.3-0.5c0.5-0.1,1,0,1.6,0.1c0.5,0.1,1,0.4,1.4,0.7
			c0.4,0.3,0.7,0.7,0.8,1.1c0.1,0.2,0.2,1.3,0.3,3.2c0.1,1.1,0.2,2.9,0.3,5.4C125.7,27,125.7,28.3,125.8,29.4z"/>
		<path d="M137.1,29.2l-2.4-1.2c-0.6-0.3-1.2-0.3-1.6,0c-0.3,0.2-0.6,0.5-0.8,0.9c-0.1,0.2-0.1,0.3-0.1,0.3c0,0,0,0.1,0,0.1
			l-1.2,2.4l-2.5-1.2c0.1-0.2,0.2-0.4,0.4-0.8c0.2-0.3,0.4-0.8,0.6-1.3c0.3-0.5,0.5-1.1,0.8-1.7c0.4-0.9,1-1.5,1.8-1.9
			c0.8-0.4,1.8-0.3,2.8,0.2l3.1,1.5c0.3,0.1,0.6,0.2,0.8,0c0.3-0.1,0.4-0.3,0.6-0.6c0.1-0.3,0.2-0.6,0.1-0.8
			c-0.1-0.3-0.2-0.5-0.5-0.7l-6.1-3L134,19l6.5,3.2c1,0.5,1.6,1.2,1.8,2.2c0.2,0.9,0.1,1.8-0.4,2.8c-0.5,0.9-1.1,1.6-1.9,2
			C139.1,29.7,138.1,29.7,137.1,29.2z"/>
		<path d="M149.7,37.3l-2.2-1.6c-0.6-0.4-1.1-0.5-1.6-0.3c-0.4,0.1-0.7,0.4-1,0.8c-0.1,0.1-0.2,0.2-0.2,0.3c0,0,0,0.1,0,0.1
			l-1.6,2.2l-2.2-1.7c0.1-0.2,0.3-0.4,0.5-0.7c0.2-0.3,0.5-0.7,0.9-1.2c0.4-0.5,0.7-1,1.1-1.5c0.6-0.8,1.3-1.3,2.1-1.5
			c0.9-0.2,1.8,0,2.7,0.7l2.8,2.1c0.3,0.2,0.5,0.3,0.8,0.2c0.3-0.1,0.5-0.2,0.7-0.5c0.2-0.3,0.3-0.5,0.3-0.8c0-0.3-0.1-0.6-0.4-0.7
			l-5.4-4.1l1.6-2.2l5.8,4.4c0.9,0.7,1.3,1.5,1.3,2.5c0,0.9-0.3,1.8-0.9,2.6c-0.6,0.8-1.4,1.4-2.3,1.6
			C151.5,38.2,150.6,38,149.7,37.3z"/>
		<path d="M159.1,53.6l-4.9-5.4c-0.7-0.8-1-1.7-0.8-2.7c0.2-0.9,0.6-1.7,1.4-2.4c0.7-0.6,1.5-1,2.3-1.1c0.2-0.8,0.6-1.6,1.3-2.2
			c0.8-0.7,1.6-1.1,2.5-1.2c1-0.1,1.9,0.3,2.6,1.1l4.9,5.4l-2,1.8l-4.6-5c-0.2-0.2-0.5-0.3-0.7-0.3c-0.3,0-0.6,0.1-0.8,0.4
			c-0.2,0.2-0.4,0.4-0.4,0.7c0,0.3,0,0.5,0.3,0.8l4.6,5l-2,1.8l-0.1,0l-4.8-5.3c-0.2-0.1-0.4-0.1-0.6,0c-0.2,0.1-0.4,0.2-0.6,0.3
			c-0.2,0.2-0.4,0.5-0.4,0.7c-0.1,0.3,0,0.5,0.2,0.8l4.6,5L159.1,53.6z"/>
		<path d="M167.6,67.1l-1.6-2.6l6.7-7.9c0.1-0.1,0.1-0.2,0-0.3c-0.1-0.1-0.1-0.1-0.3-0.1l-10.1,2.3l-1.6-2.6
			c0.6-0.2,1.8-0.5,3.7-0.9c1.8-0.4,3.6-0.8,5.3-1.2c1.8-0.4,2.9-0.6,3.1-0.6c0.4,0,0.9,0.2,1.3,0.5c0.4,0.3,0.8,0.7,1,1.2
			c0.3,0.5,0.5,1,0.6,1.5c0.1,0.5,0,1-0.1,1.4c-0.1,0.2-0.8,1.1-2,2.5c-0.7,0.9-1.9,2.2-3.5,4C169.1,65.3,168.3,66.3,167.6,67.1z"/>
		<path d="M172.4,79.8l0.3-8.6l-3,1.1l-0.9-2.6l4-1.4c1-0.3,1.8-0.4,2.6-0.1c0.9,0.3,1.5,1,1.9,2.1l1.2,3.3c0.1,0.3,0.3,0.5,0.6,0.6
			c0.3,0.1,0.5,0.1,0.8,0c0.3-0.1,0.5-0.3,0.7-0.5c0.2-0.3,0.2-0.5,0.1-0.8l-2.3-6.4l2.5-0.9l2.5,6.8c0.4,1,0.3,2-0.3,2.8
			c-0.5,0.8-1.2,1.4-2.2,1.7c-1,0.4-1.9,0.4-2.8,0.1c-1-0.3-1.6-1-2-2l-0.6-1.7l-0.1,5.7L172.4,79.8z"/>
		<path d="M172.4,120.2l0.6-3l10.3-1.5c0.1,0,0.2-0.1,0.2-0.2c0-0.1,0-0.2-0.1-0.3l-9.1-5l0.6-3c0.6,0.3,1.7,0.9,3.3,1.8
			c1.7,0.9,3.2,1.8,4.7,2.6c1.6,0.9,2.6,1.5,2.7,1.6c0.3,0.3,0.5,0.7,0.6,1.2c0.1,0.5,0.1,1,0,1.6c-0.1,0.6-0.3,1-0.6,1.5
			c-0.3,0.4-0.6,0.7-1,0.9c-0.2,0.1-1.3,0.3-3.1,0.6c-1.1,0.2-2.9,0.4-5.3,0.7C174.8,119.9,173.5,120.1,172.4,120.2z"/>
		<path d="M179,138.2c-0.8-0.6-1.7-1.4-2.9-2.4c-1.5-1.3-2.9-2.4-4.1-3.5c-1.4-1.2-2.2-2-2.3-2.2c-0.2-0.4-0.3-0.8-0.3-1.3
			c0-0.5,0.1-1,0.3-1.6c0.2-0.5,0.5-1,0.9-1.3c0.4-0.4,0.7-0.6,1.2-0.7c0.2-0.1,1.3,0,3.2,0.1c1.1,0.1,2.9,0.2,5.4,0.4
			c2,0.2,3.3,0.3,3.8,0.3l-1.1,2.8l-10.4-0.7c-0.1,0-0.2,0-0.2,0.1c0,0.1,0,0.2,0,0.3l7.9,6.8L179,138.2z"/>
		<path d="M159.9,145.5l1.6-2.6l10.1,2.4c0.1,0,0.2,0,0.2-0.1c0.1-0.1,0.1-0.2,0-0.3l-6.6-8l1.6-2.6c0.4,0.5,1.2,1.4,2.5,2.9
			c1.2,1.4,2.4,2.8,3.4,4.1c1.2,1.5,1.8,2.3,1.9,2.5c0.2,0.4,0.2,0.9,0.1,1.4c-0.1,0.5-0.3,1-0.6,1.5s-0.7,0.9-1.1,1.2
			c-0.4,0.3-0.8,0.5-1.3,0.5c-0.3,0-1.3-0.2-3.1-0.6c-1.1-0.3-2.9-0.7-5.2-1.3C162.1,146.1,160.9,145.8,159.9,145.5z"/>
		<path d="M156,149.8l1.8-2.1l9.7,8.3l-1.8,2.1L156,149.8z"/>
		<path d="M145.7,159.6l3.8-3.4c1.2-1.1,2.4-1.6,3.7-1.6c1,0,1.9,0.3,2.9,0.9c0.6,0.4,1.2,0.9,1.8,1.5c0.1,0.1,0.2,0.2,0.3,0.3
			c0.1,0.1,0.1,0.1,0.1,0.2l4,4.5l-2.1,1.9l-4-4.5c-0.7-0.8-1.5-1.3-2.3-1.6c-1-0.3-1.8-0.1-2.5,0.5l-3.8,3.4L145.7,159.6z"/>
		<path d="M132.2,168l2.6-1.5l7.8,6.8c0.1,0.1,0.2,0.1,0.3,0c0.1-0.1,0.2-0.1,0.1-0.3l-2.1-10.1l2.6-1.5c0.2,0.6,0.4,1.8,0.9,3.7
			c0.4,1.8,0.8,3.6,1.1,5.3c0.4,1.9,0.6,2.9,0.6,3.1c0,0.4-0.2,0.9-0.5,1.3c-0.3,0.4-0.7,0.7-1.2,1c-0.5,0.3-1,0.5-1.5,0.5
			c-0.5,0.1-1,0-1.4-0.2c-0.2-0.1-1.1-0.8-2.5-2c-0.9-0.8-2.2-1.9-4-3.6C133.9,169.5,133,168.7,132.2,168z"/>
		<path d="M122.2,178.3c-0.4-0.2-0.7-0.5-0.9-0.9s-0.5-0.8-0.6-1.2c-0.3-1-0.4-1.9-0.1-2.8c0.3-1,1-1.7,2-2l6.9-2.4l0.9,2.5
			l-6.4,2.2c-0.3,0.1-0.5,0.3-0.6,0.6c-0.1,0.3-0.1,0.5,0,0.8c0.1,0.3,0.3,0.5,0.5,0.7c0.2,0.2,0.5,0.2,0.8,0.1l6.4-2.2l0.9,2.7
			l-6.4,2.2c-0.3,0.1-0.5,0.3-0.6,0.6c-0.1,0.3-0.1,0.5,0,0.8c0.1,0.3,0.3,0.5,0.5,0.7c0.3,0.2,0.5,0.2,0.8,0.1l6.4-2.2l0.9,2.5
			l-6.9,2.4c-1,0.4-2,0.2-2.9-0.3c-0.8-0.5-1.4-1.3-1.7-2.3c-0.2-0.4-0.2-0.9-0.2-1.3C122,179.1,122.1,178.7,122.2,178.3z"/>
		<path d="M105.6,174.9l5-0.7c1.6-0.2,2.9,0,4,0.6c0.8,0.5,1.5,1.3,1.9,2.3c0.3,0.7,0.5,1.4,0.6,2.3c0,0.2,0,0.3,0.1,0.4
			c0,0.1,0,0.2,0,0.2l0.9,5.9l-2.8,0.4l-0.9-5.9c-0.2-1.1-0.5-1.9-1.1-2.6c-0.6-0.8-1.4-1.1-2.3-0.9l-5,0.7L105.6,174.9z"/>
		<path d="M91.5,174.6l7.3,0.3c1.1,0,1.9,0.5,2.5,1.3c0.5,0.8,0.8,1.7,0.7,2.7c0,1-0.3,1.8-0.8,2.5c0.5,0.7,0.7,1.6,0.6,2.5
			c0,1-0.4,1.9-1,2.6c-0.7,0.8-1.5,1.1-2.6,1.1l-7.3-0.3l0.1-2.7l6.8,0.3c0.3,0,0.6-0.1,0.7-0.3c0.2-0.2,0.3-0.5,0.3-0.8
			c0-0.3-0.1-0.6-0.2-0.8c-0.2-0.2-0.4-0.3-0.7-0.4l-6.8-0.3l0.1-2.7l0-0.1l7.2,0.3c0.2-0.1,0.3-0.2,0.5-0.4
			c0.1-0.2,0.2-0.4,0.2-0.7c0-0.3-0.1-0.6-0.2-0.8c-0.2-0.2-0.4-0.4-0.7-0.4l-6.8-0.3L91.5,174.6z"/>
		<path d="M66.8,170.3c0.3-0.8,0.8-1.3,1.6-1.5c0.8-0.2,1.5-0.2,2.4,0.1c0.7,0.3,1.3,0.7,1.7,1.3c0.5,0.7,0.7,1.4,0.7,2.3
			c0,0.2-0.1,1.1-0.2,2.8c-0.1,1.5-0.2,2.8-0.2,3.7c0,1.2,0.1,1.9,0.4,1.9c0.2,0,0.3,0,0.4-0.1c0.1-0.1,0.2-0.2,0.2-0.4l3.3-9l2.6,1
			l-3.6,9.6c-0.3,0.9-0.9,1.4-1.7,1.6c-0.7,0.2-1.5,0.1-2.4-0.2c-1.2-0.4-1.9-1.4-2.2-2.8c-0.2-1-0.1-2.4,0.1-4.4
			c0.3-2.1,0.4-3.5,0.3-4c0-0.3-0.2-0.5-0.4-0.6c-0.1,0-0.3,0-0.4,0c-0.1,0.1-0.2,0.2-0.3,0.4l-3.3,9l-2.7-1L66.8,170.3z"/>
		<path d="M57.7,161.9l3.5,2.3c1.3,0.8,1.9,2,1.9,3.6c0,1.4-0.4,2.8-1.4,4.3c-0.9,1.5-2.1,2.5-3.4,3.1c-1.5,0.7-2.8,0.6-4.1-0.2
			l-3.5-2.3c-1.2-0.8-1.9-2-1.9-3.6c0-1.5,0.5-2.9,1.4-4.4c0.9-1.4,2-2.4,3.3-3C55.1,161,56.5,161.1,57.7,161.9z M56.6,164.5
			c-0.6-0.4-1.2-0.3-2,0.1c-0.7,0.4-1.3,1-1.9,1.9c-0.5,0.8-0.8,1.6-0.9,2.4c-0.1,0.8,0.2,1.4,0.8,1.8l2.7,1.7
			c0.6,0.4,1.2,0.4,2-0.1c0.7-0.4,1.2-1,1.8-1.8c0.5-0.8,0.9-1.7,0.9-2.5c0.1-0.9-0.2-1.5-0.7-1.9L56.6,164.5z"/>
		<path d="M37.3,146.5c0.7-0.6,1.4-0.9,2.3-0.7c0.7,0.2,1.4,0.6,2.1,1.3c0.6,0.6,0.9,1.3,1,2c0.1,0.7-0.1,1.5-0.5,2.4l-3.6,6.2
			c-0.1,0.2-0.1,0.3-0.1,0.4c0,0.1,0.1,0.2,0.1,0.3c0.1,0.1,0.2,0.2,0.4,0.1c0.2,0,0.3-0.1,0.5-0.2l4.8-4.6c0.7-0.6,1.4-0.9,2.3-0.7
			c0.7,0.2,1.4,0.6,2.1,1.3c0.5,0.6,0.8,1.2,0.8,2c0,0.9-0.3,1.8-0.9,2.8l-4.9,8.4l-2-2.1l4.8-8.5c0.2-0.1,0.2-0.3,0.2-0.5
			c0-0.1,0-0.3-0.1-0.3c-0.1-0.1-0.3-0.2-0.4-0.2c-0.1,0-0.3,0.1-0.4,0.2l-4.9,4.6c-0.6,0.6-1.3,0.8-2.2,0.6
			c-0.8-0.1-1.5-0.5-2.1-1.2c-0.5-0.6-0.9-1.2-1-1.9c-0.1-0.8,0-1.5,0.5-2.3l3.5-6.4c0.1-0.3,0.2-0.5,0.2-0.6c0-0.1,0-0.2-0.1-0.3
			c-0.2-0.1-0.3-0.2-0.4-0.2c-0.1,0-0.2,0.1-0.4,0.3l-6.8,6.5l-1.9-2L37.3,146.5z"/>
		<path d="M32.7,141.7l1.5,2.4l-7.2,4.6l-1.5-2.4L32.7,141.7z M36.3,139.4l1.5,2.4l-2.3,1.5l-1.5-2.4L36.3,139.4z"/>
	</g>
</g>
</svg>
