<svg width="45" height="43" viewBox="0 0 45 43" fill="none" xmlns="http://www.w3.org/2000/svg">
<path d="M44.838 0.388084L43.804 8.19009C41.172 8.00209 39.198 8.50342 37.882 9.69408C36.566 10.8848 35.72 12.5141 35.344 14.5821C34.968 16.6501 34.9053 18.9374 35.156 21.4441H44.838V42.6881H26.414V18.6241C26.414 12.0441 28.012 7.09342 31.208 3.77209C34.4667 0.450755 39.01 -0.677247 44.838 0.388084ZM18.424 0.388084L17.39 8.19009C14.758 8.00209 12.784 8.50342 11.468 9.69408C10.152 10.8848 9.306 12.5141 8.93 14.5821C8.554 16.6501 8.49133 18.9374 8.742 21.4441H18.424V42.6881H0V18.6241C0 12.0441 1.598 7.09342 4.794 3.77209C8.05267 0.450755 12.596 -0.677247 18.424 0.388084Z" fill="#99E836"/>
</svg>
